# File created by Blade
# Date/Time:  Thu Jan 22 16:10:14 2015
# Frame Rate: 120.000 fps
#------------------------------------------------------
:FULLY-SPECIFIED
:DEGREES
2546
root 4.971887 32.382880 0.207090 22.049105 21.765889 6.645494
RightUpLeg -2.972566 -33.988751 -31.441984
RightLeg -6.792256 -0.000000 0.000000
RightFoot -2.889817 -31.972261 38.373681
RightToeBase 12.816546 -0.000000 -0.000000
LeftUpLeg -55.665078 13.774863 0.156445
LeftLeg 50.919463 -0.000000 -0.000000
LeftFoot -15.756862 10.879463 -24.412293
LeftToeBase 4.232065 -0.000000 -0.000000
Spine 40.999063 6.288467 -21.473637
RightShoulder 9.796687 -13.119220 -26.415603
RightArm 31.167648 -17.114227 54.811311
RightForeArm 6.531736 -0.000000 39.281334
RightHand 8.502111 -0.000000 -12.619356
RightHandThumb1 -24.326973 -0.000000 -32.862282
LeftShoulder -21.949107 27.464060 5.629514
LeftArm 52.022868 5.380874 -62.804839
LeftForeArm 18.406858 0.000000 19.309199
LeftHand -24.462198 -0.000000 10.050723
LeftHandThumb1 -26.253704 0.000000 33.147579
Head -23.352897 -16.687878 5.740653
2547
root 4.888502 32.431171 0.227647 21.705595 21.536965 6.626906
RightUpLeg -2.873283 -33.758177 -31.417922
RightLeg -6.767315 -0.000000 0.000000
RightFoot -2.848890 -31.923295 38.229590
RightToeBase 12.683940 -0.000000 -0.000000
LeftUpLeg -55.034246 13.894436 0.385067
LeftLeg 50.430602 -0.000000 -0.000000
LeftFoot -15.529327 11.058856 -24.498060
LeftToeBase 4.225754 -0.000000 -0.000000
Spine 40.787835 6.080422 -21.545158
RightShoulder 9.619747 -13.304552 -26.202047
RightArm 30.756685 -17.023857 55.139467
RightForeArm 7.052172 -0.000000 39.243717
RightHand 8.630985 -0.000000 -12.715988
RightHandThumb1 -24.326973 -0.000000 -32.862282
LeftShoulder -21.889077 27.433801 5.637083
LeftArm 52.154403 5.572593 -62.865170
LeftForeArm 18.453640 -0.000000 19.292509
LeftHand -24.367634 -0.000000 9.864823
LeftHandThumb1 -26.253704 0.000000 33.147579
Head -23.404811 -16.348478 5.840251
2548
root 4.803491 32.482479 0.246688 21.388291 21.259472 6.598460
RightUpLeg -2.856616 -33.473573 -31.360227
RightLeg -6.719560 -0.000000 0.000000
RightFoot -3.007543 -31.805724 38.287670
RightToeBase 12.940300 -0.000000 -0.000000
LeftUpLeg -54.407914 14.033385 0.622732
LeftLeg 49.917014 -0.000000 -0.000000
LeftFoot -15.318931 11.218217 -24.674627
LeftToeBase 4.255924 -0.000000 -0.000000
Spine 40.533655 5.909998 -21.647226
RightShoulder 9.458458 -13.565721 -25.985354
RightArm 30.453027 -16.926269 55.420142
RightForeArm 7.694594 0.000000 39.206369
RightHand 8.793807 -0.000000 -12.985210
RightHandThumb1 -24.326973 -0.000000 -32.862282
LeftShoulder -21.850039 27.421270 5.650901
LeftArm 52.277681 5.746530 -62.935406
LeftForeArm 18.366141 0.000000 19.268638
LeftHand -24.349177 -0.000000 10.187809
LeftHandThumb1 -26.253704 0.000000 33.147579
Head -23.456774 -16.090708 5.968431
2549
root 4.725588 32.529403 0.273264 21.031291 21.088844 6.609171
RightUpLeg -2.634367 -33.269898 -31.402911
RightLeg -6.752719 -0.000000 0.000000
RightFoot -2.927568 -31.708762 38.219171
RightToeBase 12.774723 -0.000000 -0.000000
LeftUpLeg -53.736807 14.072292 0.864326
LeftLeg 49.422926 -0.000000 -0.000000
LeftFoot -15.158441 11.348010 -24.907030
LeftToeBase 4.407754 -0.000000 -0.000000
Spine 40.379183 5.621286 -21.732478
RightShoulder 9.294267 -13.770335 -25.758104
RightArm 30.116115 -16.818027 55.725998
RightForeArm 8.188123 -0.000000 39.219525
RightHand 8.915208 -0.000000 -13.105046
RightHandThumb1 -24.326973 -0.000000 -32.862282
LeftShoulder -21.840667 27.378424 5.634304
LeftArm 52.329392 5.893776 -63.030902
LeftForeArm 18.594514 -0.000000 19.273584
LeftHand -24.371211 -0.000000 9.386237
LeftHandThumb1 -26.253704 0.000000 33.147579
Head -23.559711 -15.693920 6.058855
